<mxfile host="Electron" modified="2024-02-16T12:40:50.606Z" agent="Mozilla/5.0 (Windows NT 10.0; Win64; x64) AppleWebKit/537.36 (KHTML, like Gecko) draw.io/21.3.7 Chrome/112.0.5615.204 Electron/24.5.0 Safari/537.36" etag="oD9CTY-mT8ppdJTt-0Hh" version="21.3.7" type="device">
  <diagram name="Seite-1" id="D6MWEODlxH02s7YrJoqW">
    <mxGraphModel dx="792" dy="1188" grid="1" gridSize="10" guides="1" tooltips="1" connect="1" arrows="1" fold="1" page="1" pageScale="1" pageWidth="430" pageHeight="430" math="0" shadow="0">
      <root>
        <mxCell id="0" />
        <mxCell id="1" parent="0" />
        <mxCell id="aEOAw6nwesAdznIjMla1-14" style="edgeStyle=orthogonalEdgeStyle;rounded=0;orthogonalLoop=1;jettySize=auto;html=1;exitX=0.5;exitY=1;exitDx=0;exitDy=0;entryX=0.5;entryY=0;entryDx=0;entryDy=0;" edge="1" parent="1" source="aEOAw6nwesAdznIjMla1-1" target="aEOAw6nwesAdznIjMla1-13">
          <mxGeometry relative="1" as="geometry" />
        </mxCell>
        <mxCell id="aEOAw6nwesAdznIjMla1-17" style="edgeStyle=orthogonalEdgeStyle;rounded=0;orthogonalLoop=1;jettySize=auto;html=1;exitX=0.5;exitY=1;exitDx=0;exitDy=0;entryX=0.5;entryY=0;entryDx=0;entryDy=0;" edge="1" parent="1" source="aEOAw6nwesAdznIjMla1-1" target="aEOAw6nwesAdznIjMla1-16">
          <mxGeometry relative="1" as="geometry" />
        </mxCell>
        <mxCell id="aEOAw6nwesAdznIjMla1-1" value="0" style="rounded=0;whiteSpace=wrap;html=1;" vertex="1" parent="1">
          <mxGeometry x="120" y="40" width="80" height="40" as="geometry" />
        </mxCell>
        <mxCell id="aEOAw6nwesAdznIjMla1-19" style="edgeStyle=orthogonalEdgeStyle;rounded=0;orthogonalLoop=1;jettySize=auto;html=1;exitX=0.5;exitY=1;exitDx=0;exitDy=0;entryX=0.5;entryY=0;entryDx=0;entryDy=0;" edge="1" parent="1" source="aEOAw6nwesAdznIjMla1-13" target="aEOAw6nwesAdznIjMla1-18">
          <mxGeometry relative="1" as="geometry" />
        </mxCell>
        <mxCell id="aEOAw6nwesAdznIjMla1-13" value="6" style="rounded=0;whiteSpace=wrap;html=1;" vertex="1" parent="1">
          <mxGeometry x="40" y="120" width="80" height="40" as="geometry" />
        </mxCell>
        <mxCell id="aEOAw6nwesAdznIjMla1-22" style="edgeStyle=orthogonalEdgeStyle;rounded=0;orthogonalLoop=1;jettySize=auto;html=1;exitX=0.5;exitY=1;exitDx=0;exitDy=0;entryX=0.5;entryY=0;entryDx=0;entryDy=0;" edge="1" parent="1" source="aEOAw6nwesAdznIjMla1-16" target="aEOAw6nwesAdznIjMla1-21">
          <mxGeometry relative="1" as="geometry" />
        </mxCell>
        <mxCell id="aEOAw6nwesAdznIjMla1-24" style="edgeStyle=orthogonalEdgeStyle;rounded=0;orthogonalLoop=1;jettySize=auto;html=1;exitX=0.5;exitY=1;exitDx=0;exitDy=0;entryX=0.5;entryY=0;entryDx=0;entryDy=0;" edge="1" parent="1" source="aEOAw6nwesAdznIjMla1-16" target="aEOAw6nwesAdznIjMla1-20">
          <mxGeometry relative="1" as="geometry" />
        </mxCell>
        <mxCell id="aEOAw6nwesAdznIjMla1-16" value="1" style="rounded=0;whiteSpace=wrap;html=1;" vertex="1" parent="1">
          <mxGeometry x="200" y="120" width="80" height="40" as="geometry" />
        </mxCell>
        <mxCell id="aEOAw6nwesAdznIjMla1-18" value="7" style="rounded=0;whiteSpace=wrap;html=1;fillColor=#f5f5f5;fontColor=#333333;strokeColor=#666666;" vertex="1" parent="1">
          <mxGeometry x="40" y="200" width="80" height="40" as="geometry" />
        </mxCell>
        <mxCell id="aEOAw6nwesAdznIjMla1-27" style="edgeStyle=orthogonalEdgeStyle;rounded=0;orthogonalLoop=1;jettySize=auto;html=1;exitX=0.5;exitY=1;exitDx=0;exitDy=0;" edge="1" parent="1" source="aEOAw6nwesAdznIjMla1-20" target="aEOAw6nwesAdznIjMla1-26">
          <mxGeometry relative="1" as="geometry" />
        </mxCell>
        <mxCell id="aEOAw6nwesAdznIjMla1-28" style="edgeStyle=orthogonalEdgeStyle;rounded=0;orthogonalLoop=1;jettySize=auto;html=1;exitX=0.5;exitY=1;exitDx=0;exitDy=0;entryX=0.5;entryY=0;entryDx=0;entryDy=0;" edge="1" parent="1" source="aEOAw6nwesAdznIjMla1-20" target="aEOAw6nwesAdznIjMla1-25">
          <mxGeometry relative="1" as="geometry" />
        </mxCell>
        <mxCell id="aEOAw6nwesAdznIjMla1-20" value="2" style="rounded=0;whiteSpace=wrap;html=1;" vertex="1" parent="1">
          <mxGeometry x="250" y="200" width="80" height="40" as="geometry" />
        </mxCell>
        <mxCell id="aEOAw6nwesAdznIjMla1-21" value="5" style="rounded=0;whiteSpace=wrap;html=1;fillColor=#f5f5f5;fontColor=#333333;strokeColor=#666666;" vertex="1" parent="1">
          <mxGeometry x="150" y="200" width="80" height="40" as="geometry" />
        </mxCell>
        <mxCell id="aEOAw6nwesAdznIjMla1-25" value="3" style="rounded=0;whiteSpace=wrap;html=1;fillColor=#f5f5f5;fontColor=#333333;strokeColor=#666666;" vertex="1" parent="1">
          <mxGeometry x="300" y="280" width="80" height="40" as="geometry" />
        </mxCell>
        <mxCell id="aEOAw6nwesAdznIjMla1-26" value="4" style="rounded=0;whiteSpace=wrap;html=1;fillColor=#f5f5f5;fontColor=#333333;strokeColor=#666666;" vertex="1" parent="1">
          <mxGeometry x="200" y="280" width="80" height="40" as="geometry" />
        </mxCell>
      </root>
    </mxGraphModel>
  </diagram>
</mxfile>
